<mxfile host="app.diagrams.net" modified="2023-04-20T07:23:07.621Z" agent="Mozilla/5.0 (Windows NT 10.0; Win64; x64) AppleWebKit/537.36 (KHTML, like Gecko) Chrome/112.0.0.0 Safari/537.36" version="21.1.9" etag="F1d7fFG_-0Gg607jPc_V" type="github">
  <diagram name="PÃ¡gina-1" id="HvQ973Fkniyyo7h4LCcu">
    <mxGraphModel>
      <root>
        <mxCell id="0" />
        <mxCell id="1" parent="0" />
      </root>
    </mxGraphModel>
  </diagram>
</mxfile>
